<svg width="4816" height="800" viewBox="0 0 4816 800" fill="none" xmlns="http://www.w3.org/2000/svg">
<mask id="mask0_12914_15818" style="mask-type:alpha" maskUnits="userSpaceOnUse" x="0" y="0" width="4816" height="800">
<rect width="4816" height="800" fill="#D9D9D9"/>
</mask>
<g mask="url(#mask0_12914_15818)">
<g opacity="0.3" filter="url(#filter0_f_12914_15818)">
<circle cx="1491.5" cy="422.5" r="128.5" fill="#236CE9"/>
</g>
<g opacity="0.3" filter="url(#filter1_f_12914_15818)">
<ellipse cx="3368" cy="208" rx="309" ry="313" fill="#236CE9"/>
</g>
<g opacity="0.7" filter="url(#filter2_f_12914_15818)">
<circle cx="2971" cy="291" r="126" fill="#3731BE"/>
</g>
<g opacity="0.4" filter="url(#filter3_f_12914_15818)">
<circle cx="1632.5" cy="8.5" r="240.5" fill="#3731BE"/>
</g>
<g opacity="0.5" filter="url(#filter4_f_12914_15818)">
<circle cx="1003.5" cy="-42.5" r="240.5" fill="#3B49DC"/>
</g>
<g opacity="0.5" filter="url(#filter5_f_12914_15818)">
<circle cx="501" cy="-188" r="203" fill="#226CE9"/>
</g>
<g opacity="0.2" filter="url(#filter6_f_12914_15818)">
<circle cx="3828.5" cy="71.5" r="157.5" fill="#3731BE"/>
</g>
<g opacity="0.2" filter="url(#filter7_f_12914_15818)">
<circle cx="4250.5" cy="-25.5" r="157.5" fill="#3731BE"/>
</g>
<path opacity="0.3" d="M2305.23 77.8394C1962.13 -42.3484 1666.73 405 1236.53 405C1005.35 405 772.136 255.844 634.441 0H773.151C1007.11 364.765 1294.5 348.928 1636.32 195.302C1818.35 113.493 1937.92 20.4726 2101.94 0C2101.94 0 2145.22 5 2168.5 5L2305.23 77.8394Z" fill="url(#paint0_linear_12914_15818)"/>
<path opacity="0.4" d="M2870.84 365.187C2652.28 365.187 2519.06 152.74 2305.23 77.8394L2175.87 0H2230.2C2501.34 36.9613 2643.28 310 2867.59 310C3042.89 310 3218.77 138.593 3425.4 0H3543C3291.61 138.816 3077.57 365.187 2870.84 365.187Z" fill="url(#paint1_linear_12914_15818)"/>
<path opacity="0.4" d="M1636.32 195.302C1818.35 113.493 1937.92 20.4726 2101.94 0H1856.05C1765.27 38.5271 1680.46 84.9756 1595.76 117.773C1344.68 214.998 1098.94 255.324 918.195 0H773.15C1007.11 364.765 1294.5 348.928 1636.32 195.302Z" fill="url(#paint2_linear_12914_15818)"/>
<path opacity="0.5" d="M2867.6 310C3042.92 310 3218.83 138.539 3425.5 -0.0664062H3332.51C3161.81 129.152 3015.1 265 2871.12 265C2707.22 265 2588.95 98.3124 2414.36 -7.62939e-05H2230.2C2501.34 36.9612 2643.28 310 2867.6 310Z" fill="url(#paint3_linear_12914_15818)"/>
<path opacity="0.3" d="M1595.76 117.774C1680.46 84.9758 1765.27 38.5271 1856.05 0H1677.79C1463.75 94.1932 1248.37 175.084 1066.4 0H918.195C1098.94 255.325 1344.68 214.999 1595.76 117.774Z" fill="url(#paint4_linear_12914_15818)"/>
<path opacity="0.6" d="M2871.12 265C3015.1 265 3161.8 129.156 3332.5 -0.0605469H3266.71C3120.07 118.751 2996.35 232 2877.59 232C2744.58 232 2643.89 104.615 2498 0.085083H2414.51C2589.02 98.4086 2707.27 265 2871.12 265Z" fill="url(#paint5_linear_12914_15818)"/>
<path opacity="0.4" d="M1476.81 0H1677.79C1463.75 94.1929 1248.37 175.083 1066.4 0H1242.06C1317.3 29.1591 1395.35 22.824 1476.81 0Z" fill="url(#paint6_linear_12914_15818)"/>
<path opacity="0.3" d="M1476.81 0C1395.35 22.824 1317.3 29.1591 1242.06 0H1476.81Z" fill="url(#paint7_linear_12914_15818)"/>
<path opacity="0.6" d="M2877.59 232C2996.33 232 3120.02 118.789 3266.64 0H3217.46C3093.87 103.933 2990.93 195 2891.85 195C2787.03 195 2692.05 96.9044 2568.62 0H2497.88C2643.83 104.545 2744.54 232 2877.59 232Z" fill="url(#paint8_linear_12914_15818)"/>
<path opacity="0.6" d="M2891.86 195C2990.94 195 3093.9 103.915 3217.5 -0.03125H3170.9C3076.33 81.0856 2998.95 147.383 2931.32 154.809C2827.81 166.174 2743.79 94.8116 2651 0.0516052H2568.69C2692.09 96.9391 2787.05 195 2891.86 195Z" fill="url(#paint9_linear_12914_15818)"/>
<path opacity="0.6" d="M2999.92 99.6193C2903.59 148.159 2799.91 96.2392 2734.07 0.0953979H2651C2743.81 94.8812 2827.84 166.272 2931.37 154.904C2999.02 147.477 3076.42 81.1462 3171.02 0H3135.05C3084.17 43.422 3039.65 79.5956 2999.92 99.6193Z" fill="url(#paint10_linear_12914_15818)"/>
<path opacity="0.6" d="M3100.16 0C3048.54 43.8605 3001.47 75.5513 2951.96 81.7938C2886.3 90.0712 2836.2 54.9829 2809.81 0H3100.16Z" fill="url(#paint11_linear_12914_15818)"/>
<path opacity="0.7" d="M2809.81 0C2836.2 54.9829 2886.3 90.0713 2951.96 81.7938C3001.47 75.5513 3048.54 43.8605 3100.16 0H3134.89C3084.05 43.3796 3039.57 79.5148 2999.87 99.5239C2903.54 148.063 2799.86 96.1438 2734.02 0H2809.81Z" fill="url(#paint12_linear_12914_15818)"/>
<path opacity="0.3" d="M2305.23 77.8394C1962.13 -42.3484 1666.73 405 1236.53 405C1005.35 405 772.136 255.844 634.441 0H465.305C558.152 184.475 789.139 530 1216.8 530C1653.25 530 1889.71 116.122 2200.89 116.122L2305.23 77.8394Z" fill="url(#paint13_linear_12914_15818)"/>
<path opacity="0.3" d="M2870.84 365.187C2652.28 365.187 2519.06 152.74 2305.23 77.8393L2200.89 116.122C2473.95 116.122 2598.91 435.191 2871.98 435.191C3161.85 435.191 3368.93 127.271 3747.12 0H3543C3291.61 138.816 3077.57 365.187 2870.84 365.187Z" fill="url(#paint14_linear_12914_15818)"/>
<path opacity="0.2" d="M1216.8 530C1653.25 530 1889.71 116.122 2200.89 116.122C2201.26 116.122 2201.63 116.123 2202 116.124L2185.7 171.159C1939.11 171.159 1640.63 654 1197.99 654C818.509 654 512.195 462.464 283.023 0H465.304C558.152 184.475 789.138 530 1216.8 530Z" fill="url(#paint15_linear_12914_15818)"/>
<path opacity="0.2" d="M2200.89 116.122C2473.95 116.122 2598.91 435.191 2871.98 435.191C3161.85 435.191 3368.93 127.271 3747.12 0H4068.85C3445.39 119.888 3298.52 515.329 2871.85 515.329C2552.81 515.329 2465.16 171.158 2185.7 171.158L2200.89 116.122Z" fill="url(#paint16_linear_12914_15818)"/>
<path d="M1197.99 653.75C986.773 653.75 798.238 594.399 633.059 462.005C501.565 356.609 384.862 204.915 283.302 0C257.283 -52.4991 232.257 -108.492 208.231 -168.094L207.768 -167.907C231.764 -108.378 256.758 -52.4477 282.744 0C384.354 205.076 501.134 356.905 632.746 462.395C798.023 594.867 986.671 654.25 1197.99 654.25C1419.4 654.25 1604.74 533.49 1765.51 412.779C1788.87 395.246 1811.7 377.715 1834.05 360.554L1834.05 360.55C1888.65 318.631 1940.36 278.925 1989.72 246.812C2059.29 201.551 2124.12 171.408 2185.69 171.408C2320.7 171.408 2410.91 251.789 2504.19 334.908L2508.56 338.796C2510.29 340.34 2512.03 341.885 2513.76 343.43C2610.49 429.472 2712.22 515.579 2871.85 515.579C3082.83 515.579 3225.44 418.912 3390.97 306.71C3422.79 285.139 3455.46 262.995 3489.63 240.852C3637.52 145.002 3813.49 49.1534 4070.18 0H4068L4067.5 0.00595093C3812.14 49.3208 3636.79 144.877 3489.35 240.432C3455.17 262.587 3422.49 284.74 3390.66 306.314C3225.14 418.51 3082.67 515.079 2871.85 515.079C2712.43 515.079 2610.82 429.101 2514.1 343.057C2510.89 340.203 2507.68 337.349 2504.49 334.498C2411.24 251.409 2320.9 170.908 2185.69 170.908C2123.97 170.908 2059.03 201.121 1989.45 246.393C1940.07 278.516 1888.34 318.24 1833.74 360.163L1833.73 360.165L1833.73 360.165L1833.72 360.177L1833.7 360.19L1833.68 360.203L1833.65 360.232C1811.33 377.37 1788.53 394.875 1765.21 412.379C1604.44 533.089 1419.22 653.75 1197.99 653.75Z" fill="white"/>
<path d="M597.92 208.268C725.154 368.966 925.256 529.625 1216.8 529.625C1434.9 529.625 1603.04 426.219 1755.61 322.751C1768.47 314.028 1781.23 305.303 1793.89 296.641L1793.91 296.628C1856.32 253.929 1916.55 212.724 1977.05 180.46C2049.82 141.644 2123.01 115.747 2200.89 115.747C2337.56 115.747 2437.15 195.588 2536.63 275.329L2536.67 275.364C2636.19 355.145 2735.6 434.816 2871.98 434.816C2963.24 434.816 3046.3 404.269 3129.11 358.42C3190.78 324.283 3252.28 281.677 3316.93 236.895C3339.12 221.522 3361.68 205.893 3384.75 190.261C3490.37 118.682 3606.52 47.0894 3745.93 0.00947571H3748.28C3608.03 47.0459 3491.3 118.957 3385.17 190.882C3362.12 206.502 3339.57 222.124 3317.38 237.493L3317.38 237.496L3317.37 237.499L3317.37 237.5C3252.72 282.287 3191.17 324.921 3129.48 359.076C3046.6 404.958 2963.41 435.566 2871.98 435.566C2735.31 435.566 2635.72 355.726 2536.24 275.984L2536.2 275.949C2436.68 196.168 2337.27 116.497 2200.89 116.497C2123.18 116.497 2050.12 142.336 1977.4 181.122C1916.95 213.365 1856.76 254.541 1794.34 297.239C1781.67 305.908 1768.91 314.64 1756.03 323.372C1603.46 426.843 1435.15 530.375 1216.8 530.375C924.944 530.375 724.648 369.535 597.332 208.733C537.933 133.711 494.413 58.6901 464.885 0H465.724C495.232 58.6063 538.673 133.438 597.92 208.268Z" fill="white"/>
<path d="M1770.98 214.334C1609.81 306.366 1437.95 404.5 1236.53 404.5C1005.64 404.5 772.646 255.566 635.008 0H633.873C771.624 256.121 1005.06 405.5 1236.53 405.5C1438.23 405.5 1610.3 307.236 1771.43 215.228C1782.26 209.041 1793.05 202.883 1803.79 196.784C1974.33 99.9521 2133.76 18.3035 2305.07 78.3116C2394.14 109.513 2469.21 164.598 2542.36 218.279L2542.37 218.281C2556.95 228.979 2571.45 239.622 2585.97 250.008C2673.33 312.488 2761.39 365.687 2870.84 365.687C2945.51 365.687 3021.08 336.211 3098.96 292.054C3163.64 255.375 3229.96 208.539 3298.68 160.002L3298.69 159.997C3312.69 150.105 3326.8 140.142 3341.01 130.18C3406.21 84.4784 3473.67 38.7933 3544.04 0H3541.97C3472.11 38.6387 3405.14 84.0077 3340.44 129.361C3326.21 139.33 3312.1 149.299 3298.09 159.195C3229.36 207.732 3163.1 254.532 3098.46 291.184C3020.65 335.309 2945.25 364.687 2870.84 364.687C2761.73 364.687 2673.9 311.663 2586.55 249.194C2572.07 238.837 2557.6 228.218 2543.05 217.54L2543.03 217.527L2543.01 217.513L2542.99 217.5L2542.99 217.497L2542.99 217.496C2469.83 163.813 2394.62 108.623 2305.4 77.3679C2133.6 17.1881 1973.77 99.1198 1803.29 195.915C1792.63 201.971 1781.92 208.085 1771.16 214.227L1771.01 214.314L1770.98 214.334Z" fill="white"/>
<path d="M1793.23 117.905L1793.23 117.907L1793.2 117.921C1788.32 120.484 1783.41 123.063 1778.47 125.655C1734.57 148.69 1688.07 172.729 1636.58 195.872C1457.97 276.145 1294.1 318.863 1144.9 289.249C1008.38 262.154 884.264 174.529 772.408 0H773.893C885.506 173.88 1009.23 261.047 1145.14 288.023C1293.96 317.559 1457.53 274.973 1636.07 194.732C1687.52 171.605 1733.99 147.582 1777.89 124.549C1782.84 121.952 1787.76 119.369 1792.64 116.8C1831.11 96.5848 1867.78 77.3142 1904.32 60.3209C1966.18 31.5548 2027.7 9.30238 2097.07 0H2107.2C2033.89 8.41652 1969.58 31.3521 1904.85 61.4544C1868.33 78.4333 1831.7 97.688 1793.23 117.905Z" fill="white"/>
<path d="M3279.05 105.233L3279.07 105.216L3279.21 105.116L3279.24 105.095L3279.39 104.98C3295.57 93.0665 3311.91 81.035 3328.42 69.0052C3360.41 45.7103 3393.07 22.4202 3426.52 0H3424.28C3391.34 22.1166 3359.18 45.0581 3327.69 67.9948C3311.04 80.1201 3294.58 92.2437 3278.29 104.244L3278.28 104.247C3213.42 152.013 3151.22 197.821 3090.51 233.994C3014.54 279.255 2940.99 309.375 2867.59 309.375C2807.59 309.375 2753.47 289.791 2701.14 260.374C2655.6 234.774 2611.46 201.749 2565.99 167.729L2565.97 167.716L2565.95 167.702L2565.61 167.447C2558.94 162.458 2552.24 157.448 2545.51 152.437C2455.31 85.326 2358.47 18.1252 2234.66 0H2225.38C2353.21 16.035 2452.36 84.6907 2544.76 153.44C2551.58 158.512 2558.36 163.585 2565.11 168.637L2565.17 168.682L2565.23 168.727L2565.24 168.729C2610.7 202.743 2654.92 235.821 2700.53 261.463C2752.97 290.944 2807.3 310.625 2867.59 310.625C2941.33 310.625 3015.11 280.37 3091.15 235.068C3151.92 198.862 3214.18 153.007 3279.04 105.239L3279.04 105.237L3279.05 105.236L3279.05 105.233Z" fill="white"/>
<path d="M1738.8 54.6333L1739 54.5372C1777.82 36.03 1817.29 17.2076 1857.97 0H1854.13C1814.57 16.8442 1776.14 35.1697 1738.36 53.181L1738.36 53.1833C1733.73 55.3885 1729.12 57.589 1724.51 59.7814C1680.96 80.5149 1638.2 100.533 1595.49 117.074C1453.36 172.11 1313.09 208.846 1185.41 184.13C1087.75 165.225 997.363 110.35 919.112 0H917.275C995.853 111.191 1086.76 166.562 1185.12 185.602C1313.25 210.404 1453.86 173.526 1596.03 118.473C1638.8 101.909 1681.6 81.8686 1725.16 61.1358C1729.7 58.9747 1734.25 56.8062 1738.8 54.6333Z" fill="white"/>
<path d="M3309.29 18.5946C3290.28 33.2053 3271.56 47.8192 3253.1 62.2309C3193.57 108.705 3136.73 153.076 3081.61 188.444C3009.39 234.78 2939.98 265.75 2871.12 265.75C2812.82 265.75 2760.3 244.724 2709.05 213.252C2667.51 187.74 2626.75 155.331 2584.39 121.651L2584.39 121.646L2584.3 121.58C2574.45 113.749 2564.52 105.849 2554.47 97.9518C2510.37 63.3117 2464.02 28.6948 2412.83 0H2415.89C2466.27 28.4976 2511.96 62.6462 2555.39 96.7723C2565.49 104.708 2575.47 112.641 2585.36 120.501C2627.71 154.176 2668.38 186.514 2709.84 211.974C2760.96 243.366 2813.2 264.25 2871.12 264.25C2939.54 264.25 3008.65 233.47 3080.8 187.181C3135.85 151.857 3192.61 107.552 3252.12 61.0917L3252.12 61.0905L3252.13 61.0883L3252.13 61.0854L3252.13 61.0813L3252.16 61.0639L3252.26 60.9848C3270.69 46.5968 3289.38 32.0027 3308.37 17.4053C3315.93 11.5996 3323.53 5.79355 3331.18 0H3333.66C3325.48 6.18739 3317.36 12.3908 3309.29 18.5946Z" fill="white"/>
<path d="M1542.95 56.3157C1448 90.9963 1354.11 112.933 1264.43 100.547C1194.93 90.9475 1128.02 60.742 1065.14 0H1067.66C1129.92 59.6651 1196.05 89.3359 1264.67 98.8134C1353.93 111.141 1447.49 89.3197 1542.35 54.672C1586.63 38.4992 1631.15 19.5535 1675.62 0H1679.96C1634.24 20.1354 1588.45 39.6997 1542.95 56.3157Z" fill="white"/>
<path d="M3220.49 38.8145L3220.49 38.8161C3168.54 81.4108 3119.38 121.725 3072.15 154.438C3004.32 201.429 2940.32 232.875 2877.59 232.875C2820.95 232.875 2770.2 209.876 2719.46 175.49C2684.23 151.619 2648.94 122.209 2611.66 91.1431C2595.27 77.4822 2578.49 63.501 2561.17 49.5296C2540.46 32.8315 2518.96 16.1368 2496.38 0H2499.38C2521.28 15.7192 2542.15 31.9449 2562.27 48.1674C2579.65 62.1837 2596.45 76.19 2612.86 89.8632L2612.86 89.8647C2650.1 120.901 2685.29 150.221 2720.44 174.041C2771.05 208.337 2821.46 231.125 2877.59 231.125C2939.76 231.125 3003.39 199.946 3071.16 152.999C3118.32 120.327 3167.4 80.0847 3219.32 37.5121C3234.38 25.1615 3249.69 12.6148 3265.25 0H3268.03C3251.92 13.0469 3236.08 26.0322 3220.5 38.8121L3220.49 38.8145Z" fill="white"/>
<path d="M1321.38 19.3273C1373.05 23.8774 1426.03 15.5425 1480.49 0H1473.07C1421.19 14.2518 1370.75 21.6667 1321.56 17.335C1295.67 15.0549 1270.11 9.51891 1244.86 0H1239.33C1266.3 10.7307 1293.65 16.8848 1321.38 19.3273Z" fill="white"/>
<path d="M3072.76 118.621C3113.07 89.2791 3155.26 53.7239 3200.11 15.9216L3200.27 15.7849C3206.47 10.5626 3212.72 5.29744 3219.02 0H3215.91C3210.56 4.50343 3205.24 8.98193 3199.96 13.4292L3198.74 14.4644C3153.93 52.2281 3111.84 87.6984 3071.58 117.004C3007.98 163.297 2949.2 194 2891.86 194C2840.38 194 2791.21 170.205 2739.67 134.332C2706.49 111.241 2672.42 83.2163 2636.17 53.3987C2616.08 36.873 2595.32 19.7964 2573.67 2.70352C2572.53 1.80234 2571.39 0.901138 2570.24 0H2567C2568.82 1.42416 2570.63 2.84869 2572.43 4.27322C2594 21.3043 2614.73 38.3516 2634.81 54.8663C2671.11 84.7238 2705.29 112.841 2738.53 135.973C2790.17 171.918 2839.76 196 2891.86 196C2949.88 196 3009.11 164.953 3072.76 118.621Z" fill="white"/>
<path d="M3086.77 71.9964C3029.06 118.011 2978.04 150.812 2931.44 155.928C2839.53 166.019 2763.03 111.254 2682.61 33.201C2671.61 22.527 2660.54 11.4169 2649.35 -0.0263672H2652.5C2663.16 10.8571 2673.71 21.4251 2684.18 31.5865C2764.58 109.63 2840.41 163.659 2931.2 153.691C2977.07 148.655 3027.63 116.278 3085.36 70.2372C3111.75 49.1938 3139.59 25.3377 3169.13 0.000396729H3172.59L3172.04 0.473785C3141.97 26.2655 3113.62 50.5833 3086.77 71.9964Z" fill="white"/>
<path d="M3000.43 100.64C2929.86 136.199 2855.44 118.205 2794.74 68.715C2771.73 49.9529 2750.67 26.6539 2732.51 0H2735.54C2753.35 25.8752 2773.91 48.5048 2796.32 66.7774C2856.48 115.822 2929.85 133.408 2999.3 98.4076C3038.56 78.6266 3082.55 42.9873 3132.92 0.0338135H3136.77C3085.51 43.8057 3040.57 80.4126 3000.43 100.64Z" fill="white"/>
<path d="M3099.19 2.6243C3048.28 45.6798 3001.48 76.9358 2952.13 83.158C2894.18 90.4644 2848.19 64.2861 2819.76 20.5606C2815.54 14.0753 2811.71 7.20453 2808.28 0H2811.33C2814.56 6.66757 2818.14 13.0356 2822.06 19.0614C2849.99 62.0048 2894.99 87.5897 2951.79 80.4296C3000.27 74.3166 3046.54 43.5558 3097.41 0.524658L3098.03 0H3102.28C3101.24 0.879608 3100.21 1.75441 3099.19 2.6243Z" fill="white"/>
</g>
<defs>
<filter id="filter0_f_12914_15818" x="998" y="-71" width="987" height="987" filterUnits="userSpaceOnUse" color-interpolation-filters="sRGB">
<feFlood flood-opacity="0" result="BackgroundImageFix"/>
<feBlend mode="normal" in="SourceGraphic" in2="BackgroundImageFix" result="shape"/>
<feGaussianBlur stdDeviation="182.5" result="effect1_foregroundBlur_12914_15818"/>
</filter>
<filter id="filter1_f_12914_15818" x="2698.07" y="-465.929" width="1339.86" height="1347.86" filterUnits="userSpaceOnUse" color-interpolation-filters="sRGB">
<feFlood flood-opacity="0" result="BackgroundImageFix"/>
<feBlend mode="normal" in="SourceGraphic" in2="BackgroundImageFix" result="shape"/>
<feGaussianBlur stdDeviation="180.464" result="effect1_foregroundBlur_12914_15818"/>
</filter>
<filter id="filter2_f_12914_15818" x="2497" y="-183" width="948" height="948" filterUnits="userSpaceOnUse" color-interpolation-filters="sRGB">
<feFlood flood-opacity="0" result="BackgroundImageFix"/>
<feBlend mode="normal" in="SourceGraphic" in2="BackgroundImageFix" result="shape"/>
<feGaussianBlur stdDeviation="174" result="effect1_foregroundBlur_12914_15818"/>
</filter>
<filter id="filter3_f_12914_15818" x="795.269" y="-828.731" width="1674.46" height="1674.46" filterUnits="userSpaceOnUse" color-interpolation-filters="sRGB">
<feFlood flood-opacity="0" result="BackgroundImageFix"/>
<feBlend mode="normal" in="SourceGraphic" in2="BackgroundImageFix" result="shape"/>
<feGaussianBlur stdDeviation="298.365" result="effect1_foregroundBlur_12914_15818"/>
</filter>
<filter id="filter4_f_12914_15818" x="166.269" y="-879.731" width="1674.46" height="1674.46" filterUnits="userSpaceOnUse" color-interpolation-filters="sRGB">
<feFlood flood-opacity="0" result="BackgroundImageFix"/>
<feBlend mode="normal" in="SourceGraphic" in2="BackgroundImageFix" result="shape"/>
<feGaussianBlur stdDeviation="298.365" result="effect1_foregroundBlur_12914_15818"/>
</filter>
<filter id="filter5_f_12914_15818" x="-96" y="-785" width="1194" height="1194" filterUnits="userSpaceOnUse" color-interpolation-filters="sRGB">
<feFlood flood-opacity="0" result="BackgroundImageFix"/>
<feBlend mode="normal" in="SourceGraphic" in2="BackgroundImageFix" result="shape"/>
<feGaussianBlur stdDeviation="197" result="effect1_foregroundBlur_12914_15818"/>
</filter>
<filter id="filter6_f_12914_15818" x="3269" y="-488" width="1119" height="1119" filterUnits="userSpaceOnUse" color-interpolation-filters="sRGB">
<feFlood flood-opacity="0" result="BackgroundImageFix"/>
<feBlend mode="normal" in="SourceGraphic" in2="BackgroundImageFix" result="shape"/>
<feGaussianBlur stdDeviation="201" result="effect1_foregroundBlur_12914_15818"/>
</filter>
<filter id="filter7_f_12914_15818" x="3691" y="-585" width="1119" height="1119" filterUnits="userSpaceOnUse" color-interpolation-filters="sRGB">
<feFlood flood-opacity="0" result="BackgroundImageFix"/>
<feBlend mode="normal" in="SourceGraphic" in2="BackgroundImageFix" result="shape"/>
<feGaussianBlur stdDeviation="201" result="effect1_foregroundBlur_12914_15818"/>
</filter>
<linearGradient id="paint0_linear_12914_15818" x1="1087" y1="411" x2="1097.97" y2="236.151" gradientUnits="userSpaceOnUse">
<stop stop-color="white"/>
<stop offset="1" stop-color="white" stop-opacity="0"/>
</linearGradient>
<linearGradient id="paint1_linear_12914_15818" x1="2914" y1="365" x2="2873.11" y2="247.419" gradientUnits="userSpaceOnUse">
<stop stop-color="white"/>
<stop offset="1" stop-color="white" stop-opacity="0"/>
</linearGradient>
<linearGradient id="paint2_linear_12914_15818" x1="1089.5" y1="320.5" x2="1100.09" y2="135.633" gradientUnits="userSpaceOnUse">
<stop stop-color="white"/>
<stop offset="1" stop-color="white" stop-opacity="0"/>
</linearGradient>
<linearGradient id="paint3_linear_12914_15818" x1="2896" y1="310" x2="2865.91" y2="199.209" gradientUnits="userSpaceOnUse">
<stop stop-color="white"/>
<stop offset="1" stop-color="white" stop-opacity="0"/>
</linearGradient>
<linearGradient id="paint4_linear_12914_15818" x1="1219.5" y1="214" x2="1257.69" y2="64.8519" gradientUnits="userSpaceOnUse">
<stop stop-color="white"/>
<stop offset="1" stop-color="white" stop-opacity="0"/>
</linearGradient>
<linearGradient id="paint5_linear_12914_15818" x1="2888.5" y1="268.001" x2="2869.53" y2="159.795" gradientUnits="userSpaceOnUse">
<stop stop-color="white"/>
<stop offset="1" stop-color="white" stop-opacity="0"/>
</linearGradient>
<linearGradient id="paint6_linear_12914_15818" x1="1251.5" y1="126" x2="1276.54" y2="-17.0298" gradientUnits="userSpaceOnUse">
<stop stop-color="white"/>
<stop offset="1" stop-color="white" stop-opacity="0"/>
</linearGradient>
<linearGradient id="paint7_linear_12914_15818" x1="1346.48" y1="20.6508" x2="1343.26" y2="-27.4765" gradientUnits="userSpaceOnUse">
<stop stop-color="white"/>
<stop offset="1" stop-color="white" stop-opacity="0"/>
</linearGradient>
<linearGradient id="paint8_linear_12914_15818" x1="2887" y1="232" x2="2875.15" y2="127.812" gradientUnits="userSpaceOnUse">
<stop stop-color="white"/>
<stop offset="1" stop-color="white" stop-opacity="0"/>
</linearGradient>
<linearGradient id="paint9_linear_12914_15818" x1="2886" y1="196" x2="2879.34" y2="116.887" gradientUnits="userSpaceOnUse">
<stop stop-color="white"/>
<stop offset="1" stop-color="white" stop-opacity="0"/>
</linearGradient>
<linearGradient id="paint10_linear_12914_15818" x1="2890.5" y1="157.5" x2="2885.06" y2="95.4074" gradientUnits="userSpaceOnUse">
<stop stop-color="white"/>
<stop offset="1" stop-color="white" stop-opacity="0"/>
</linearGradient>
<linearGradient id="paint11_linear_12914_15818" x1="2905.5" y1="80.5" x2="2910.5" y2="37" gradientUnits="userSpaceOnUse">
<stop stop-color="white"/>
<stop offset="1" stop-color="white" stop-opacity="0"/>
</linearGradient>
<linearGradient id="paint12_linear_12914_15818" x1="2895" y1="120" x2="2891" y2="77.9525" gradientUnits="userSpaceOnUse">
<stop stop-color="white"/>
<stop offset="1" stop-color="white" stop-opacity="0"/>
</linearGradient>
<linearGradient id="paint13_linear_12914_15818" x1="1087" y1="538.5" x2="1085.69" y2="341.212" gradientUnits="userSpaceOnUse">
<stop stop-color="white"/>
<stop offset="1" stop-color="white" stop-opacity="0"/>
</linearGradient>
<linearGradient id="paint14_linear_12914_15818" x1="2957.5" y1="427.5" x2="2911.82" y2="313.075" gradientUnits="userSpaceOnUse">
<stop stop-color="white"/>
<stop offset="1" stop-color="white" stop-opacity="0"/>
</linearGradient>
<linearGradient id="paint15_linear_12914_15818" x1="1055.5" y1="654" x2="1034.25" y2="468.35" gradientUnits="userSpaceOnUse">
<stop stop-color="white"/>
<stop offset="1" stop-color="white" stop-opacity="0"/>
</linearGradient>
<linearGradient id="paint16_linear_12914_15818" x1="3137" y1="473.5" x2="3090.86" y2="351.846" gradientUnits="userSpaceOnUse">
<stop stop-color="white"/>
<stop offset="1" stop-color="white" stop-opacity="0"/>
</linearGradient>
</defs>
</svg>
