<svg width="122" height="38" viewBox="0 0 122 38" fill="none" xmlns="http://www.w3.org/2000/svg">
<path fill-rule="evenodd" clip-rule="evenodd" d="M11.4885 13.8398L13.5816 15.9329L15.6954 13.8072L13.5593 11.6814L11.4885 13.7507L9.39551 11.6606L7.28168 13.7864L9.41779 15.9121L11.4885 13.8398ZM24.9819 25.5691C25.477 25.5691 25.9816 25.5572 26.4956 25.5335C27.0088 25.5072 27.5201 25.4522 28.0271 25.3686C28.5055 25.2875 28.9765 25.1672 29.4353 25.0091C29.8332 24.8675 30.2078 24.6673 30.5464 24.4149C32.1805 22.9547 32.5028 21.6683 32.5028 20.0922C32.4944 19.8072 32.4651 19.5232 32.4152 19.2425C32.3785 18.9781 32.3364 18.7176 32.2889 18.4611C32.2414 18.2046 32.1864 17.9407 32.124 17.6694C32.0616 17.3961 31.9859 17.096 31.8982 16.7647L28.6926 17.6798C28.7594 17.9576 28.8322 18.2502 28.9139 18.5547C28.993 18.8546 29.0496 19.16 29.0833 19.4683C29.1173 19.7646 29.1138 20.0641 29.0729 20.3596C29.0334 20.6416 28.9258 20.9098 28.7594 21.1409C28.6216 21.3286 28.4447 21.4842 28.241 21.597C27.9946 21.7341 27.7293 21.8343 27.4537 21.8941C27.0947 21.9718 26.7301 22.0215 26.3634 22.0426C25.9484 22.0703 25.4765 22.0847 24.9477 22.0857H24.5823C24.1593 22.0935 23.7378 22.0323 23.3345 21.9045C23.0137 21.8037 22.7187 21.6344 22.4699 21.4083C22.2563 21.2061 22.1021 20.9492 22.0243 20.6656C21.9435 20.3597 21.9359 20.0391 22.002 19.7297L22.4477 17.3931L19.3638 16.6177C19.2762 16.992 19.1856 17.3604 19.0949 17.7288C19.0051 18.0874 18.8889 18.439 18.7473 18.7805C18.6087 19.1145 18.4391 19.4348 18.2408 19.7372C18.0316 20.0498 17.7756 20.3283 17.4817 20.5631C17.1133 20.8595 16.7028 21.0993 16.2636 21.2746C15.7501 21.4785 15.2191 21.6351 14.6772 21.7425C14.0463 21.8693 13.4084 21.9576 12.7668 22.007C12.0736 22.0604 11.3433 22.0877 10.5758 22.0887C9.73796 22.0887 8.9264 22.0758 8.14108 22.05C7.41535 22.031 6.69198 21.9591 5.97675 21.8346C5.38569 21.7398 4.81105 21.5618 4.26994 21.3058C3.82412 21.1055 3.45514 20.7663 3.21823 20.3388C3.08236 20.0827 3.01242 19.7968 3.01472 19.5069C3.01445 19.1811 3.05032 18.8563 3.12167 18.5384C3.19197 18.1958 3.29136 17.8599 3.41876 17.5342C3.55097 17.2015 3.68912 16.891 3.83618 16.6028L1.21433 15.0847C0.867643 15.7493 0.585594 16.4457 0.372063 17.1643C0.186441 17.7892 0.0679246 18.4321 0.0185208 19.0821C-0.0242838 19.6383 0.00718776 20.1978 0.112106 20.7458C0.203504 21.2173 0.375355 21.6695 0.620137 22.0827C1.3391 23.2919 2.5359 24.1807 4.21052 24.7491C5.88514 25.3176 8.00689 25.6023 10.5758 25.6033C12.5495 25.6033 14.2766 25.3904 15.7571 24.9645C17.1456 24.5872 18.4363 23.9143 19.5406 22.9918C19.7822 23.4267 20.0821 23.8265 20.4319 24.1802C20.7595 24.5048 21.1372 24.7746 21.5504 24.9794C21.9853 25.1889 22.4465 25.3388 22.9215 25.425C23.4556 25.5234 23.9976 25.5731 24.5407 25.5736H24.9863L24.9819 25.5691ZM26.7436 27.3585L28.8366 29.4515L30.9059 27.3808L33.0435 29.5065L30.9281 31.6322L28.8366 29.5406L26.7659 31.6099L24.6283 29.4842L26.7436 27.3585ZM40.5337 29.8036L42.9788 32.2472L45.4239 29.8036L42.9788 27.3585L40.5337 29.8036ZM49.9184 27.3585L52.0114 29.4515L54.0807 27.3808L56.2183 29.5065L54.1029 31.6322L52.0114 29.5406L49.9407 31.6099L47.8031 29.4842L49.9184 27.3585ZM73.0441 17.1316C72.6049 17.0397 72.1726 16.9176 71.7503 16.7662C71.3328 16.6176 70.9243 16.4498 70.5277 16.27C70.1311 16.0903 69.7389 15.909 69.3497 15.7263C68.9378 15.5352 68.5228 15.346 68.1049 15.1589C67.686 14.9717 67.2626 14.8039 66.8333 14.6583C66.4099 14.512 65.9778 14.3919 65.5395 14.2988C65.1123 14.2074 64.6766 14.1611 64.2397 14.1606C63.6632 14.1581 63.092 14.2707 62.5596 14.4919C62.0264 14.7134 61.5264 15.0079 61.0742 15.3668C60.6066 15.7358 60.1811 16.1553 59.8056 16.6176C59.4363 17.0704 59.1049 17.5529 58.8148 18.06L61.3594 19.694C61.4602 19.5357 61.5704 19.3834 61.6891 19.238C61.8895 18.9899 62.1107 18.7593 62.3502 18.5487C62.6244 18.3086 62.9231 18.0979 63.2415 17.9204C63.5441 17.7488 63.8859 17.6582 64.2338 17.6574C64.7359 17.659 65.2355 17.728 65.7192 17.8624C66.2144 17.9981 66.7155 18.161 67.2225 18.3512C67.7296 18.5413 68.2322 18.7394 68.7303 18.9453C69.2216 19.1468 69.724 19.3199 70.2351 19.4638C69.4854 19.8084 68.7238 20.1402 67.9504 20.459C67.1472 20.7893 66.3247 21.0706 65.4875 21.3013C64.5709 21.5556 63.6385 21.7486 62.6963 21.8792C61.6109 22.027 60.5163 22.097 59.4208 22.0886H57.2847C57.0153 22.1005 56.7484 22.0317 56.5182 21.891C56.3284 21.7648 56.172 21.5946 56.0622 21.3949C55.9511 21.1938 55.8715 20.9769 55.826 20.7517C55.777 20.5199 55.7383 20.306 55.7101 20.107C55.6656 19.798 55.625 19.5113 55.5883 19.2469C55.5517 18.9825 55.5096 18.722 55.4621 18.4655C55.4145 18.209 55.3596 17.9451 55.2972 17.6738C55.2348 17.4005 55.159 17.1004 55.0714 16.7691L51.8672 17.6842C51.9326 17.962 52.0054 18.2546 52.0871 18.5591C52.1661 18.859 52.2227 19.1644 52.2564 19.4727C52.2905 19.769 52.287 20.0685 52.246 20.364C52.2066 20.646 52.099 20.9142 51.9326 21.1453C51.7948 21.333 51.6179 21.4886 51.4141 21.6014C51.1677 21.7385 50.9024 21.8387 50.6268 21.8985C50.2678 21.9762 49.9033 22.0259 49.5365 22.047C49.1226 22.0747 48.6507 22.0891 48.1209 22.0901H47.9114C47.6914 22.1019 47.4746 22.0339 47.3009 21.8985C47.1469 21.7648 47.0263 21.5969 46.9488 21.4083C46.8626 21.2022 46.8051 20.9853 46.778 20.7636C46.7483 20.5318 46.726 20.3179 46.7111 20.1085C46.6963 19.899 46.6785 19.6911 46.6562 19.4742C46.6339 19.2573 46.6012 19.0285 46.5581 18.7656C46.5151 18.5027 46.4527 18.2234 46.3754 17.9115C46.2982 17.5995 46.2001 17.2415 46.0783 16.8375L42.9588 17.598C43.1109 18.1167 43.232 18.644 43.3213 19.1771C43.372 19.4851 43.4013 19.7964 43.4089 20.1085C43.4089 20.768 43.1524 21.2632 42.6395 21.5939C42.1265 21.9247 41.3654 22.0896 40.3563 22.0886H40.129C39.8913 22.0886 36.295 22.05 34.4382 21.9757C34.3193 23.1552 33.8826 24.2158 32.6274 25.3685C32.7697 25.414 32.9145 25.4512 33.0611 25.4799C33.4028 25.5394 39.7755 25.5676 40.129 25.5676H40.3815C41.2426 25.5808 42.1021 25.4926 42.9425 25.3047C43.6141 25.148 44.2481 24.8602 44.8083 24.4579C45.183 24.8079 45.6205 25.0841 46.0976 25.272C46.6117 25.465 47.1558 25.5656 47.7049 25.5691H48.1506C48.6457 25.5691 49.1503 25.5572 49.6643 25.5334C50.1775 25.5072 50.6888 25.4521 51.1958 25.3685C51.6742 25.2874 52.1452 25.1672 52.604 25.009C53.0313 24.8648 53.4326 24.6526 53.7924 24.3807C53.9921 24.5629 54.2119 24.7219 54.4475 24.8546C54.7119 25.0074 54.9905 25.1343 55.2793 25.2333C55.8651 25.4352 56.4782 25.5469 57.0976 25.5646H59.4208C60.3346 25.5676 61.2474 25.5065 62.1526 25.3819C62.9686 25.268 63.7771 25.1058 64.5739 24.8961C65.3181 24.7057 66.0503 24.4711 66.7665 24.1935C67.4647 23.9182 68.1406 23.629 68.7942 23.326C69.4478 23.02 70.088 22.7036 70.7253 22.3783L70.734 22.3738L70.7343 22.3737C71.3685 22.0499 71.9939 21.7306 72.6311 21.4261L74.1938 20.6833L74.4687 17.3024C73.9893 17.2934 73.512 17.2362 73.0441 17.1316ZM66.1831 32.2487L63.7395 29.8051L66.1831 27.3585L68.6282 29.8051L66.1831 32.2487Z" fill="#132136"/>
<path d="M83.2632 9.05469C83.2632 4.05392 87.3171 0 92.3179 0H112.208C117.209 0 121.263 4.05392 121.263 9.05469V28.9453C121.263 33.9461 117.209 38 112.208 38H92.3179C87.3171 38 83.2632 33.9461 83.2632 28.9453V9.05469Z" fill="url(#paint0_linear)"/>
<path fill-rule="evenodd" clip-rule="evenodd" d="M91.1043 6.88132C91.6601 6.6511 92.2999 6.77839 92.7253 7.20383L103.508 17.9873C104.088 18.5682 104.088 19.51 103.508 20.0908C102.927 20.6717 101.985 20.6716 101.404 20.0907L93.1609 11.8469V19.8194C93.1609 23.1271 94.8939 26.0311 97.5083 27.6711C98.2042 28.1076 98.4144 29.0256 97.9779 29.7216C97.5414 30.4175 96.6233 30.6277 95.9274 30.1912C92.482 28.0299 90.186 24.1933 90.186 19.8194V8.25556C90.186 7.65393 90.5485 7.11154 91.1043 6.88132ZM113.167 6.76811C113.989 6.76811 114.655 7.43406 114.655 8.25556V19.8194C114.655 26.5767 109.177 32.0548 102.42 32.0548C101.599 32.0548 100.933 31.3888 100.933 30.5673C100.933 29.7458 101.599 29.0799 102.42 29.0799C107.534 29.0799 111.68 24.934 111.68 19.8194V8.25556C111.68 7.43406 112.346 6.76811 113.167 6.76811Z" fill="white"/>
<defs>
<linearGradient id="paint0_linear" x1="118.609" y1="35.3458" x2="85.905" y2="2.64183" gradientUnits="userSpaceOnUse">
<stop stop-color="#433DD7"/>
<stop offset="1" stop-color="#226CE9"/>
</linearGradient>
</defs>
</svg>
